<svg width="100%" height="100%" style="overflow:visible;" preserveAspectRatio="none" viewBox="0 0 501 152" fill="none" xmlns="http://www.w3.org/2000/svg"><g clip-path="url(#clip0_267_10228)"><rect width="501" height="152" rx="10" fill="#A6A7BC" fill-opacity="0.3"/><path d="M456.609 64.3905C457.13 64.9112 457.13 65.7554 456.609 66.2761L435.276 87.6095C434.755 88.1302 433.911 88.1302 433.39 87.6095C432.87 87.0888 432.87 86.2446 433.39 85.7239L454.724 64.3905C455.244 63.8698 456.088 63.8698 456.609 64.3905Z" fill="white"/><path d="M450.066 67.1627C448.564 66.4555 446.871 66 445 66C441.074 66 437.931 68.0049 435.698 70.1329C433.459 72.2658 432.007 74.6396 431.431 75.6664C431.055 76.3393 431.01 77.1428 431.319 77.8565C431.535 78.3549 431.902 79.127 432.444 80.023C432.825 80.6532 433.644 80.8553 434.275 80.4745C434.905 80.0936 435.107 79.2739 434.726 78.6437C434.291 77.9231 433.989 77.2999 433.805 76.8859C434.346 75.9324 435.628 73.8831 437.537 72.0636C439.51 70.1842 442.026 68.6667 445 68.6667C446.069 68.6667 447.079 68.863 448.027 69.2019L450.066 67.1627Z" fill="white"/><path d="M452.587 72.1838C454.428 73.9726 455.665 75.9534 456.194 76.8859C456.011 77.2999 455.709 77.9231 455.273 78.6437C454.892 79.2739 455.094 80.0936 455.725 80.4745C456.355 80.8553 457.175 80.6532 457.555 80.023C458.097 79.127 458.464 78.3549 458.68 77.8565C458.99 77.1428 458.945 76.3393 458.568 75.6664C458.008 74.666 456.614 72.3871 454.473 70.2981L452.587 72.1838Z" fill="white"/><path d="M445 72C445.075 72 445.15 72.0016 445.224 72.0046L439.671 77.5575C439.668 77.4831 439.666 77.4084 439.666 77.3333C439.666 74.3878 442.054 72 445 72Z" fill="white"/><path d="M445 82.6667C444.156 82.6667 443.358 82.4708 442.649 82.122L449.788 74.9826C450.137 75.6917 450.333 76.4897 450.333 77.3333C450.333 80.2789 447.945 82.6667 445 82.6667Z" fill="white"/></g><defs><clipPath id="clip0_267_10228"><rect width="501" height="152" rx="10" fill="white"/></clipPath></defs></svg>