<svg width="100%" height="100%" style="overflow:visible;" preserveAspectRatio="none" viewBox="0 0 56 56" fill="none" xmlns="http://www.w3.org/2000/svg"><rect width="56" height="56" rx="6" fill="#2E3A5C"/><path fill-rule="evenodd" clip-rule="evenodd" d="M20 27.5C18.6193 27.5 17.5 26.3807 17.5 25V20C17.5 18.6193 18.6193 17.5 20 17.5H25C26.3807 17.5 27.5 18.6193 27.5 20V25C27.5 26.3807 26.3807 27.5 25 27.5H20ZM19.5 25C19.5 25.2761 19.7239 25.5 20 25.5L25 25.5C25.2761 25.5 25.5 25.2761 25.5 25V20C25.5 19.7239 25.2761 19.5 25 19.5L20 19.5C19.7239 19.5 19.5 19.7239 19.5 20L19.5 25Z" fill="white"/><path fill-rule="evenodd" clip-rule="evenodd" d="M17.5 36C17.5 37.3807 18.6193 38.5 20 38.5H25C26.3807 38.5 27.5 37.3807 27.5 36V31C27.5 29.6193 26.3807 28.5 25 28.5H20C18.6193 28.5 17.5 29.6193 17.5 31V36ZM20 36.5C19.7239 36.5 19.5 36.2761 19.5 36L19.5 31C19.5 30.7239 19.7239 30.5 20 30.5H25C25.2761 30.5 25.5 30.7239 25.5 31V36C25.5 36.2761 25.2761 36.5 25 36.5H20Z" fill="white"/><path fill-rule="evenodd" clip-rule="evenodd" d="M28.5 36C28.5 37.3807 29.6193 38.5 31 38.5H36C37.3807 38.5 38.5 37.3807 38.5 36V31C38.5 29.6193 37.3807 28.5 36 28.5H31C29.6193 28.5 28.5 29.6193 28.5 31V36ZM31 36.5C30.7239 36.5 30.5 36.2761 30.5 36V31C30.5 30.7239 30.7239 30.5 31 30.5H36C36.2761 30.5 36.5 30.7239 36.5 31V36C36.5 36.2761 36.2761 36.5 36 36.5H31Z" fill="white"/><path fill-rule="evenodd" clip-rule="evenodd" d="M28.5 25C28.5 26.3807 29.6193 27.5 31 27.5H36C37.3807 27.5 38.5 26.3807 38.5 25V20C38.5 18.6193 37.3807 17.5 36 17.5H31C29.6193 17.5 28.5 18.6193 28.5 20V25ZM31 25.5C30.7239 25.5 30.5 25.2761 30.5 25V20C30.5 19.7239 30.7239 19.5 31 19.5L36 19.5C36.2761 19.5 36.5 19.7239 36.5 20V25C36.5 25.2761 36.2761 25.5 36 25.5L31 25.5Z" fill="white"/></svg>