<svg width="100%" height="100%" style="overflow:visible;" preserveAspectRatio="none" viewBox="0 0 28 28" fill="none" xmlns="http://www.w3.org/2000/svg"><path d="M15.1668 3.50004C15.1668 2.85571 14.6444 2.33337 14.0001 2.33337C13.3558 2.33337 12.8334 2.85571 12.8334 3.50004V5.25004C12.8334 5.2824 12.8348 5.31445 12.8373 5.34614C9.52476 5.89974 7.00011 8.7789 7.00011 12.2488V16.9167C7.00011 17.5003 6.52165 18.5122 5.99805 19.445C5.26127 20.7574 5.3962 22.3398 6.80283 22.8754C8.21756 23.4141 10.4806 23.9167 14.0001 23.9167C17.5196 23.9167 19.7827 23.4141 21.1974 22.8754C22.604 22.3398 22.7389 20.7574 22.0022 19.445C21.4786 18.5122 21.0001 17.5003 21.0001 16.9167V12.2493C21.0001 8.77946 18.4755 5.89985 15.1629 5.34615C15.1655 5.31446 15.1668 5.2824 15.1668 5.25004V3.50004Z" fill="#667185"/><path d="M10.4069 24.8787C10.4504 24.9167 10.503 24.9611 10.5643 25.0101C10.7396 25.1503 10.9901 25.3321 11.3067 25.513C11.935 25.8721 12.8641 26.2501 14.0001 26.2501C15.1362 26.2501 16.0652 25.8721 16.6935 25.513C17.0101 25.3321 17.2606 25.1503 17.436 25.0101C17.4972 24.9611 17.5498 24.9167 17.5934 24.8787C16.5733 25.0057 15.3838 25.0834 14.0001 25.0834C12.6164 25.0834 11.427 25.0057 10.4069 24.8787Z" fill="#667185"/></svg>