<svg width="100%" height="100%" style="overflow:visible;" preserveAspectRatio="none" viewBox="0 0 20 20" fill="none" xmlns="http://www.w3.org/2000/svg"><path fill-rule="evenodd" clip-rule="evenodd" d="M12.1476 2.4322C11.1562 0.855933 8.84315 0.855932 7.85173 2.4322L6.24434 4.98782C6.12676 5.17475 5.93821 5.31146 5.7168 5.36551L2.76136 6.08697C0.946565 6.52999 0.212652 8.71814 1.43333 10.1497L3.39535 12.4506C3.53936 12.6195 3.60963 12.8354 3.59379 13.0523L3.37462 16.0538C3.2379 17.9262 5.12812 19.2565 6.85065 18.5641L9.67064 17.4305C9.88145 17.3458 10.1179 17.3458 10.3287 17.4305L13.1487 18.5641C14.8713 19.2565 16.7615 17.9262 16.6248 16.0538L16.4056 13.0523C16.3898 12.8354 16.46 12.6195 16.604 12.4506L18.566 10.1497C19.7867 8.71815 19.0528 6.52999 17.238 6.08697L14.2826 5.36551C14.0612 5.31146 13.8726 5.17475 13.755 4.98782L12.1476 2.4322ZM9.26254 3.31955C9.60041 2.78237 10.399 2.78237 10.7368 3.31955L12.3442 5.87517C12.6944 6.43184 13.2488 6.82876 13.8873 6.98463L16.8428 7.7061C17.4721 7.85972 17.6997 8.59697 17.2978 9.06826L15.3358 11.3692C14.9089 11.8698 14.6954 12.5173 14.7433 13.1737L14.9625 16.1752C15.0071 16.7851 14.3799 17.2627 13.7704 17.0177L10.9504 15.8841C10.3406 15.639 9.65873 15.639 9.04902 15.8841L6.22903 17.0177C5.61948 17.2627 4.99233 16.7851 5.03686 16.1752L5.25603 13.1737C5.30396 12.5173 5.09043 11.8698 4.66356 11.3692L2.70153 9.06826C2.29966 8.59697 2.52729 7.85972 3.15661 7.7061L6.11205 6.98463C6.75059 6.82876 7.30502 6.43184 7.65515 5.87517L9.26254 3.31955Z" fill="#D0D5DD"/></svg>