<svg width="100%" height="100%" style="overflow:visible;" preserveAspectRatio="none" viewBox="0 0 20 20" fill="none" xmlns="http://www.w3.org/2000/svg"><path d="M8.55741 2.87592C9.22205 1.81919 10.7779 1.81919 11.4425 2.87592L13.0499 5.43154C13.2838 5.80334 13.6553 6.07015 14.0852 6.17511L17.0407 6.89657C18.2627 7.19489 18.7435 8.6576 17.9322 9.60901L15.9702 11.9099C15.6848 12.2447 15.5429 12.6764 15.5747 13.1131L15.7939 16.1146C15.8845 17.3557 14.6259 18.2597 13.4598 17.7909L10.6398 16.6574C10.2296 16.4925 9.77036 16.4925 9.3601 16.6574L6.54011 17.7909C5.37407 18.2597 4.11538 17.3557 4.20601 16.1146L4.42518 13.1131C4.45707 12.6764 4.31517 12.2447 4.02973 11.9099L2.0677 9.60901C1.25642 8.6576 1.7372 7.19489 2.95925 6.89657L5.9147 6.17511C6.34466 6.07015 6.71616 5.80334 6.95001 5.43154L8.55741 2.87592Z" fill="#F0D802"/></svg>