<svg width="100%" height="100%" style="overflow:visible;" preserveAspectRatio="none" viewBox="0 0 316 44" fill="none" xmlns="http://www.w3.org/2000/svg"><g clip-path="url(#clip0_394_23530)"><path d="M34 22C34 28.63 28.63 34 22 34C15.37 34 10 28.63 10 22C10 15.37 15.37 10 22 10C28.63 10 34 15.37 34 22Z" fill="url(#paint0_linear_394_23530)"/><path d="M19.8 27.5C19.41 27.5 19.48 27.35 19.34 26.98L18.2 23.22L25.28 18.8L26.11 19.02L25.42 20.9L19.8 27.5Z" fill="#C8DAEA"/><path d="M19.8 27.5C20.1 27.5 20.23 27.36 20.4 27.2C20.66 26.95 24 23.7 24 23.7L21.95 23.2L20.05 24.4L19.8 27.4V27.5Z" fill="#A9C9DD"/><path d="M20 24.44L24.84 28.01C25.39 28.31 25.79 28.16 25.93 27.5L27.9 18.22C28.1 17.41 27.59 17.05 27.06 17.29L15.5 21.75C14.71 22.07 14.72 22.51 15.36 22.7L18.33 23.63L25.2 19.3C25.52 19.1 25.82 19.21 25.58 19.43L20 24.44Z" fill="url(#paint1_linear_394_23530)"/></g><g clip-path="url(#clip1_394_23530)"><path d="M50.6888 16.1936L59.3559 27.7796H61.3185L52.6515 16.1936H50.6888Z" fill="black"/><path d="M55.9866 10.1318C49.4394 10.1318 44.1319 15.4393 44.1319 21.9865C44.1319 28.5337 49.4394 33.8412 55.9866 33.8412C62.5338 33.8412 67.8413 28.5337 67.8413 21.9865C67.8413 15.4393 62.5338 10.1318 55.9866 10.1318ZM58.8928 28.7052L54.9471 23.4294L50.0635 28.7052H48.8082L54.3862 22.6794L48.8432 15.2678H53.1154L56.7492 20.1267L61.2466 15.2678H62.5019L57.3101 20.8769L63.165 28.7052H58.8928Z" fill="black"/></g><g clip-path="url(#clip2_394_23530)"><path d="M90 34C96.6274 34 102 28.6274 102 22C102 15.3726 96.6274 10 90 10C83.3726 10 78 15.3726 78 22C78 28.6274 83.3726 34 90 34Z" fill="#FF4500"/><path d="M97.9828 22.1144C97.9828 21.1416 97.1961 20.3691 96.2375 20.3691C95.7655 20.3691 95.3361 20.555 95.0215 20.8555C93.8199 19.9971 92.1745 19.4392 90.3433 19.3678L91.1444 15.6195L93.7481 16.1774C93.7769 16.8355 94.3204 17.3648 94.9929 17.3648C95.6796 17.3648 96.2375 16.807 96.2375 16.12C96.2375 15.4334 95.6796 14.8755 94.9929 14.8755C94.5065 14.8755 94.0772 15.1616 93.8769 15.5766L90.9729 14.9614C90.8871 14.947 90.8012 14.9614 90.7439 15.0043C90.6724 15.0472 90.6295 15.1187 90.6153 15.2046L89.7281 19.3819C87.8684 19.4392 86.1945 19.9971 84.9785 20.8699C84.6639 20.5694 84.2345 20.3835 83.7625 20.3835C82.7897 20.3835 82.0172 21.1702 82.0172 22.1288C82.0172 22.844 82.4463 23.4448 83.0473 23.7168C83.0185 23.8883 83.0044 24.06 83.0044 24.2462C83.0044 26.9355 86.1375 29.1246 90.0001 29.1246C93.8628 29.1246 96.9959 26.9499 96.9959 24.2462C96.9959 24.0744 96.9815 23.8883 96.9529 23.7168C97.5537 23.4448 97.9828 22.8296 97.9828 22.1144ZM85.9943 23.359C85.9943 22.6723 86.5521 22.1144 87.2391 22.1144C87.9257 22.1144 88.4836 22.6723 88.4836 23.359C88.4836 24.0456 87.9257 24.6038 87.2391 24.6038C86.5521 24.6179 85.9943 24.0456 85.9943 23.359ZM92.9615 26.6638C92.1031 27.5222 90.4721 27.5795 90.0001 27.5795C89.5137 27.5795 87.8828 27.5078 87.0385 26.6638C86.91 26.535 86.91 26.3347 87.0385 26.2059C87.1673 26.0774 87.3676 26.0774 87.4964 26.2059C88.0401 26.7496 89.1847 26.9355 90.0001 26.9355C90.8156 26.9355 91.9743 26.7496 92.5036 26.2059C92.6324 26.0774 92.8327 26.0774 92.9615 26.2059C93.0759 26.3347 93.0759 26.535 92.9615 26.6638ZM92.7324 24.6179C92.0457 24.6179 91.4879 24.06 91.4879 23.3734C91.4879 22.6867 92.0457 22.1288 92.7324 22.1288C93.4193 22.1288 93.9772 22.6867 93.9772 23.3734C93.9772 24.0456 93.4193 24.6179 92.7324 24.6179Z" fill="white"/></g><g clip-path="url(#clip3_394_23530)"><path fill-rule="evenodd" clip-rule="evenodd" d="M124 34C130.627 34 136 28.6274 136 22C136 15.3726 130.627 10 124 10C117.373 10 112 15.3726 112 22C112 28.6274 117.373 34 124 34Z" fill="#FF0002"/><path fill-rule="evenodd" clip-rule="evenodd" d="M122.348 24.0899L122.347 19.5625L126.67 21.834L122.348 24.0899ZM131.84 18.778C131.84 18.778 131.683 17.6677 131.204 17.1787C130.595 16.5367 129.913 16.5337 129.601 16.4964C127.362 16.3333 124.003 16.3333 124.003 16.3333H123.996C123.996 16.3333 120.638 16.3333 118.399 16.4964C118.086 16.5337 117.405 16.5367 116.796 17.1787C116.316 17.6677 116.16 18.778 116.16 18.778C116.16 18.778 116 20.0822 116 21.3858V22.6085C116 23.9126 116.16 25.2163 116.16 25.2163C116.16 25.2163 116.316 26.3266 116.796 26.8156C117.405 27.4576 118.204 27.4375 118.56 27.5044C119.84 27.6283 124 27.6666 124 27.6666C124 27.6666 127.362 27.6615 129.601 27.4984C129.913 27.4606 130.595 27.4576 131.204 26.8156C131.683 26.3266 131.84 25.2163 131.84 25.2163C131.84 25.2163 132 23.9126 132 22.6085V21.3858C132 20.0822 131.84 18.778 131.84 18.778Z" fill="white"/></g><path d="M168.5 22C168.5 16.201 163.799 11.5 158 11.5C152.201 11.5 147.5 16.201 147.5 22C147.5 27.799 152.201 32.5 158 32.5C163.799 32.5 168.5 27.799 168.5 22Z" fill="#1275B1"/><path d="M155.464 17.2691C155.464 17.97 154.856 18.5382 154.107 18.5382C153.358 18.5382 152.75 17.97 152.75 17.2691C152.75 16.5682 153.358 16 154.107 16C154.856 16 155.464 16.5682 155.464 17.2691Z" fill="white"/><path d="M152.936 19.4712H155.255V26.5001H152.936V19.4712Z" fill="white"/><path d="M158.99 19.4711H156.67V26.5H158.99C158.99 26.5 158.99 24.2872 158.99 22.9037C158.99 22.0732 159.273 21.2391 160.405 21.2391C161.683 21.2391 161.676 22.3259 161.67 23.1678C161.662 24.2683 161.68 25.3914 161.68 26.5H164V22.7903C163.98 20.4216 163.363 19.3301 161.332 19.3301C160.127 19.3301 159.379 19.8776 158.99 20.3729V19.4711Z" fill="white"/><path d="M202.5 22C202.5 19.2152 201.394 16.5445 199.425 14.5754C197.455 12.6063 194.785 11.5 192 11.5C189.356 11.4976 186.808 12.4927 184.866 14.2866C182.924 16.0805 181.73 18.5412 181.523 21.177C181.315 23.8129 182.11 26.4299 183.748 28.5053C185.386 30.5807 187.747 31.9617 190.359 32.3725V25.0345H187.695V22H190.361V19.687C190.361 17.056 191.928 15.601 194.327 15.601C195.476 15.601 196.677 15.8065 196.677 15.8065V18.391H195.353C194.048 18.391 193.643 19.201 193.643 20.0305V22H196.554L196.089 25.0345H193.641V32.3725C196.111 31.9814 198.36 30.7219 199.984 28.8204C201.608 26.919 202.5 24.5005 202.5 22Z" fill="#1877F2"/><path d="M196.088 25.0346L196.553 22.0001H193.641V20.0306C193.641 19.2011 194.046 18.3911 195.351 18.3911H196.676V15.8051C196.676 15.8051 195.474 15.5996 194.325 15.5996C191.925 15.5996 190.359 17.0546 190.359 19.6856V22.0001H187.695V25.0346H190.361V32.3726C191.448 32.5437 192.555 32.5437 193.643 32.3726V25.0346H196.088Z" fill="white"/><path d="M232 11.5H220C217.515 11.5 215.5 13.5147 215.5 16V28C215.5 30.4853 217.515 32.5 220 32.5H232C234.485 32.5 236.5 30.4853 236.5 28V16C236.5 13.5147 234.485 11.5 232 11.5Z" fill="url(#paint2_radial_394_23530)"/><path d="M232 11.5H220C217.515 11.5 215.5 13.5147 215.5 16V28C215.5 30.4853 217.515 32.5 220 32.5H232C234.485 32.5 236.5 30.4853 236.5 28V16C236.5 13.5147 234.485 11.5 232 11.5Z" fill="url(#paint3_radial_394_23530)"/><path d="M232 11.5H220C217.515 11.5 215.5 13.5147 215.5 16V28C215.5 30.4853 217.515 32.5 220 32.5H232C234.485 32.5 236.5 30.4853 236.5 28V16C236.5 13.5147 234.485 11.5 232 11.5Z" fill="url(#paint4_radial_394_23530)"/><path d="M231.25 17.875C231.25 18.4963 230.746 19 230.125 19C229.504 19 229 18.4963 229 17.875C229 17.2537 229.504 16.75 230.125 16.75C230.746 16.75 231.25 17.2537 231.25 17.875Z" fill="white"/><path fill-rule="evenodd" clip-rule="evenodd" d="M226 25.75C228.071 25.75 229.75 24.0711 229.75 22C229.75 19.929 228.071 18.25 226 18.25C223.929 18.25 222.25 19.929 222.25 22C222.25 24.0711 223.929 25.75 226 25.75ZM226 24.25C227.243 24.25 228.25 23.2427 228.25 22C228.25 20.7573 227.243 19.75 226 19.75C224.757 19.75 223.75 20.7573 223.75 22C223.75 23.2427 224.757 24.25 226 24.25Z" fill="white"/><path fill-rule="evenodd" clip-rule="evenodd" d="M218.5 21.7C218.5 19.1798 218.5 17.9196 218.99 16.957C219.422 16.1103 220.11 15.4219 220.957 14.9905C221.92 14.5 223.18 14.5 225.7 14.5H226.3C228.82 14.5 230.08 14.5 231.043 14.9905C231.89 15.4219 232.578 16.1103 233.01 16.957C233.5 17.9196 233.5 19.1798 233.5 21.7V22.3C233.5 24.8202 233.5 26.0804 233.01 27.0429C232.578 27.8897 231.89 28.5781 231.043 29.0095C230.08 29.5 228.82 29.5 226.3 29.5H225.7C223.18 29.5 221.92 29.5 220.957 29.0095C220.11 28.5781 219.422 27.8897 218.99 27.0429C218.5 26.0804 218.5 24.8202 218.5 22.3V21.7ZM225.7 16H226.3C227.585 16 228.458 16.0012 229.133 16.0563C229.791 16.1101 230.127 16.2074 230.362 16.327C230.926 16.6146 231.385 17.0735 231.673 17.638C231.793 17.8726 231.89 18.2089 231.944 18.8666C231.999 19.5417 232 20.4151 232 21.7V22.3C232 23.5849 231.999 24.4583 231.944 25.1334C231.89 25.7911 231.793 26.1274 231.673 26.362C231.385 26.9264 230.926 27.3854 230.362 27.673C230.127 27.7925 229.791 27.89 229.133 27.9437C228.458 27.9988 227.585 28 226.3 28H225.7C224.415 28 223.542 27.9988 222.867 27.9437C222.209 27.89 221.873 27.7925 221.638 27.673C221.074 27.3854 220.615 26.9264 220.327 26.362C220.207 26.1274 220.11 25.7911 220.056 25.1334C220.001 24.4583 220 23.5849 220 22.3V21.7C220 20.4151 220.001 19.5417 220.056 18.8666C220.11 18.2089 220.207 17.8726 220.327 17.638C220.615 17.0735 221.074 16.6146 221.638 16.327C221.873 16.2074 222.209 16.1101 222.867 16.0563C223.542 16.0012 224.415 16 225.7 16Z" fill="white"/><g clip-path="url(#clip4_394_23530)"><path fill-rule="evenodd" clip-rule="evenodd" d="M271.473 21.7383C271.473 28.0263 266.376 33.1237 260.089 33.1237C253.801 33.1237 248.704 28.0263 248.704 21.7383C248.704 15.4504 253.801 10.353 260.089 10.353C266.376 10.353 271.473 15.4504 271.473 21.7383ZM262.824 17.5083C264.407 18.0522 265.566 18.8665 265.339 20.382C265.173 21.4918 264.556 22.0285 263.736 22.2164C264.861 22.8002 265.245 23.908 264.888 25.2475C264.212 27.1752 262.603 27.3375 260.463 26.9346L259.944 29.0067L258.689 28.695L259.202 26.6506C258.877 26.5701 258.544 26.484 258.202 26.3922L257.688 28.4466L256.435 28.1348L256.954 26.0583L254.427 25.4233L255.05 23.9925C255.05 23.9925 255.975 24.2367 255.962 24.2189C256.318 24.3064 256.475 24.0758 256.538 23.9228L257.946 18.2984C257.961 18.0329 257.869 17.6984 257.361 17.5717C257.38 17.5581 256.45 17.346 256.45 17.346L256.783 16.0113L259.313 16.6356L259.828 14.5826L261.081 14.8944L260.578 16.9068C260.915 16.9829 261.254 17.0605 261.583 17.1424L262.083 15.1428L263.338 15.4546L262.824 17.5083ZM259.823 20.9329C260.677 21.1595 262.536 21.6524 262.86 20.36C263.191 19.0377 261.385 18.6384 260.5 18.4429C260.4 18.4207 260.312 18.4011 260.239 18.3832L259.615 20.8789C259.674 20.8936 259.744 20.9122 259.823 20.9329ZM258.855 24.9512C259.878 25.2207 262.116 25.8102 262.472 24.3862C262.837 22.9301 260.667 22.4451 259.608 22.2085C259.49 22.1821 259.385 22.1587 259.3 22.1375L258.611 24.8881C258.681 24.9054 258.763 24.927 258.855 24.9512Z" fill="#F7931A"/></g><path d="M294 11.5C288.202 11.5 283.5 16.2016 283.5 22C283.5 27.7984 288.202 32.5 294 32.5C299.798 32.5 304.5 27.7984 304.5 22C304.5 16.2016 299.798 11.5 294 11.5ZM300 17.4461L299.044 18.3625C298.959 18.4258 298.92 18.5289 298.936 18.6297V25.3727C298.92 25.4758 298.959 25.5789 299.044 25.6398L299.981 26.5563V26.7602H295.275V26.5656L296.243 25.6258C296.339 25.5297 296.339 25.5016 296.339 25.3586V19.9023L293.644 26.7367H293.28L290.145 19.9023V24.4844C290.116 24.6766 290.184 24.8711 290.32 25.0094L291.581 26.5352V26.7391H288V26.5352L289.261 25.0094C289.327 24.9408 289.377 24.8575 289.405 24.7664C289.434 24.6752 289.441 24.5786 289.425 24.4844V19.1875C289.441 19.0398 289.385 18.8969 289.273 18.7961L288.152 17.4461V17.2422H291.633L294.319 23.1367L296.684 17.2469H300V17.4461Z" fill="black"/><defs><linearGradient id="paint0_linear_394_23530" x1="25.517" y1="13.793" x2="19.517" y2="27.7928" gradientUnits="userSpaceOnUse"><stop stop-color="#37AEE2"/><stop offset="1" stop-color="#1E96C8"/></linearGradient><linearGradient id="paint1_linear_394_23530" x1="22.8991" y1="22.3755" x2="25.3991" y2="26.3755" gradientUnits="userSpaceOnUse"><stop stop-color="#EFF7FC"/><stop offset="1" stop-color="white"/></linearGradient><radialGradient id="paint2_radial_394_23530" cx="0" cy="0" r="1" gradientUnits="userSpaceOnUse" gradientTransform="translate(223 27.25) rotate(-55.3758) scale(19.1397)"><stop stop-color="#B13589"/><stop offset="0.79309" stop-color="#C62F94"/><stop offset="1" stop-color="#8A3AC8"/></radialGradient><radialGradient id="paint3_radial_394_23530" cx="0" cy="0" r="1" gradientUnits="userSpaceOnUse" gradientTransform="translate(222.25 33.25) rotate(-65.1363) scale(16.9457)"><stop stop-color="#E0E8B7"/><stop offset="0.444662" stop-color="#FB8A2E"/><stop offset="0.71474" stop-color="#E2425C"/><stop offset="1" stop-color="#E2425C" stop-opacity="0"/></radialGradient><radialGradient id="paint4_radial_394_23530" cx="0" cy="0" r="1" gradientUnits="userSpaceOnUse" gradientTransform="translate(214.375 12.25) rotate(-8.1301) scale(29.1682 6.23877)"><stop offset="0.156701" stop-color="#406ADC"/><stop offset="0.467799" stop-color="#6A45BE"/><stop offset="1" stop-color="#6A45BE" stop-opacity="0"/></radialGradient><clipPath id="clip0_394_23530"><rect width="24" height="24" fill="white" transform="translate(10 10)"/></clipPath><clipPath id="clip1_394_23530"><rect width="24" height="24" fill="white" transform="translate(44 10)"/></clipPath><clipPath id="clip2_394_23530"><rect width="24" height="24" fill="white" transform="translate(78 10)"/></clipPath><clipPath id="clip3_394_23530"><rect width="24" height="24" fill="white" transform="translate(112 10)"/></clipPath><clipPath id="clip4_394_23530"><rect width="24" height="24" fill="white" transform="translate(248 10)"/></clipPath></defs></svg>