<svg width="100%" height="100%" style="overflow:visible;" preserveAspectRatio="none" viewBox="0 0 20 20" fill="none" xmlns="http://www.w3.org/2000/svg"><path d="M10.1168 8.45418C10.352 8.27777 10.4084 7.94834 10.2453 7.7037C10.0514 7.41283 9.63984 7.37208 9.39264 7.61927L8.92258 8.08934C8.59714 8.41477 8.0695 8.41477 7.74407 8.08934C7.41863 7.7639 7.41863 7.23626 7.74407 6.91083L8.21413 6.44076C9.20502 5.44987 10.8547 5.61322 11.6321 6.7792C12.2858 7.75983 12.0596 9.08037 11.1168 9.78751L11.0763 9.81785C10.9233 9.93257 10.8333 10.1126 10.8333 10.3038L10.8333 10.4167C10.8333 10.877 10.4602 11.2501 9.99999 11.2501C9.53975 11.2501 9.16666 10.877 9.16666 10.4167L9.16666 10.3038C9.16666 9.58801 9.50367 8.91399 10.0763 8.48452L10.1168 8.45418Z" fill="black"/><path d="M9.16666 12.9167C9.16666 13.377 9.53975 13.7501 9.99999 13.7501C10.4602 13.7501 10.8333 13.377 10.8333 12.9167C10.8333 12.4565 10.4602 12.0834 9.99999 12.0834C9.53975 12.0834 9.16666 12.4565 9.16666 12.9167Z" fill="black"/><path fill-rule="evenodd" clip-rule="evenodd" d="M1.66666 10.0001C1.66666 5.39771 5.39762 1.66675 9.99999 1.66675C14.6024 1.66675 18.3333 5.39771 18.3333 10.0001C18.3333 14.6025 14.6024 18.3334 9.99999 18.3334C5.39762 18.3334 1.66666 14.6025 1.66666 10.0001ZM9.99999 3.33341C6.31809 3.33341 3.33332 6.31818 3.33332 10.0001C3.33332 13.682 6.31809 16.6667 9.99999 16.6667C13.6819 16.6667 16.6667 13.682 16.6667 10.0001C16.6667 6.31818 13.6819 3.33341 9.99999 3.33341Z" fill="black"/></svg>