<svg width="100%" height="100%" style="overflow:visible;" preserveAspectRatio="none" viewBox="0 0 20 20" fill="none" xmlns="http://www.w3.org/2000/svg"><path fill-rule="evenodd" clip-rule="evenodd" d="M9.16675 1.6665C5.02461 1.6665 1.66675 5.02437 1.66675 9.1665C1.66675 13.3086 5.02461 16.6665 9.16675 16.6665C10.9376 16.6665 12.5651 16.0528 13.8482 15.0264L16.9108 18.0891C17.2363 18.4145 17.7639 18.4145 18.0893 18.0891C18.4148 17.7637 18.4148 17.236 18.0893 16.9106L15.0267 13.8479C16.053 12.5649 16.6667 10.9373 16.6667 9.1665C16.6667 5.02437 13.3089 1.6665 9.16675 1.6665ZM3.33341 9.1665C3.33341 5.94484 5.94509 3.33317 9.16675 3.33317C12.3884 3.33317 15.0001 5.94484 15.0001 9.1665C15.0001 12.3882 12.3884 14.9998 9.16675 14.9998C5.94509 14.9998 3.33341 12.3882 3.33341 9.1665Z" fill="#667185"/></svg>