<svg width="100%" height="100%" style="overflow:visible;" preserveAspectRatio="none" viewBox="0 0 20 20" fill="none" xmlns="http://www.w3.org/2000/svg"><path d="M10.5893 2.74408C10.433 2.5878 10.221 2.5 10 2.5C9.77901 2.5 9.56704 2.5878 9.41076 2.74408L4.41076 7.74408C4.08533 8.06952 4.08533 8.59715 4.41076 8.92259C4.7362 9.24803 5.26384 9.24803 5.58928 8.92259L10 4.51184L14.4108 8.92259C14.7362 9.24803 15.2638 9.24803 15.5893 8.92259C15.9147 8.59715 15.9147 8.06952 15.5893 7.74408L10.5893 2.74408Z" fill="#667185"/><path d="M10.5893 18.0893C10.433 18.2455 10.221 18.3333 10 18.3333C9.77901 18.3333 9.56704 18.2455 9.41076 18.0893L4.41076 13.0893C4.08533 12.7638 4.08533 12.2362 4.41076 11.9107C4.7362 11.5853 5.26384 11.5853 5.58928 11.9107L10 16.3215L14.4108 11.9107C14.7362 11.5853 15.2638 11.5853 15.5893 11.9107C15.9147 12.2362 15.9147 12.7638 15.5893 13.0893L10.5893 18.0893Z" fill="#667185"/></svg>