<svg width="100%" height="100%" style="overflow:visible;" preserveAspectRatio="none" viewBox="0 0 20 20" fill="none" xmlns="http://www.w3.org/2000/svg"><path fill-rule="evenodd" clip-rule="evenodd" d="M4.35396 2.5C2.8698 2.5 1.66666 3.70314 1.66666 5.1873V14.1667C1.66666 16.0076 3.15904 17.5 4.99999 17.5H15C16.8409 17.5 18.3333 16.0076 18.3333 14.1667V8.7963C18.3333 6.9557 16.8421 5.46296 15.0008 5.46296H12.408C12.3748 5.41405 12.3365 5.35183 12.2931 5.27427C12.1757 5.06429 12.0615 4.81759 11.9305 4.53459C11.8994 4.46744 11.8674 4.39822 11.8341 4.32699C11.6748 3.98558 11.4818 3.58459 11.2583 3.26646C11.0727 3.00239 10.6674 2.5 10.0115 2.5H4.35396ZM10.4064 5.2098C10.4443 5.29197 10.4837 5.37702 10.524 5.46296H3.33332V5.1873C3.33332 4.62362 3.79028 4.16667 4.35396 4.16667H9.85161C9.86398 4.18236 9.87829 4.20148 9.89452 4.22458C10.0217 4.40559 10.1586 4.67764 10.3239 5.03184C10.3505 5.08899 10.3781 5.14863 10.4064 5.2098ZM4.99999 15.8333C4.07951 15.8333 3.33332 15.0871 3.33332 14.1667V7.12963H12.0651C12.0673 7.12968 12.0695 7.12971 12.0717 7.12974C12.0812 7.12987 12.0908 7.12983 12.1003 7.12963H15.0008C15.9209 7.12963 16.6667 7.87547 16.6667 8.7963V9.16667H15C13.6193 9.16667 12.5 10.286 12.5 11.6667C12.5 13.0474 13.6193 14.1667 15 14.1667H16.6667C16.6667 15.0871 15.9205 15.8333 15 15.8333H4.99999ZM14.1667 11.6667C14.1667 11.2064 14.5398 10.8333 15 10.8333H16.6667V12.5H15C14.5398 12.5 14.1667 12.1269 14.1667 11.6667ZM9.79281 4.10269C9.79282 4.10227 9.79627 4.10471 9.80311 4.1113C9.79622 4.10641 9.7928 4.10312 9.79281 4.10269Z" fill="black"/></svg>