<svg width="100%" height="100%" style="overflow:visible;" preserveAspectRatio="none" viewBox="0 0 20 20" fill="none" xmlns="http://www.w3.org/2000/svg"><g clip-path="url(#clip0_737_11423)"><path d="M8.82149 0.916992C8.36125 0.916992 7.98815 1.29009 7.98815 1.75033C7.98815 2.21056 8.36125 2.58366 8.82149 2.58366H10.3452L1.16116 11.7677C0.835725 12.0931 0.835725 12.6207 1.16116 12.9462C1.4866 13.2716 2.01424 13.2716 2.33967 12.9462L11.5237 3.76217V5.28586C11.5237 5.7461 11.8968 6.11919 12.357 6.11919C12.8173 6.11919 13.1904 5.7461 13.1904 5.28586V1.75033C13.1904 1.29009 12.8173 0.916992 12.357 0.916992H8.82149Z" fill="black"/><path d="M18.8388 8.23222C19.1643 7.90678 19.1643 7.37915 18.8388 7.05371C18.5134 6.72827 17.9858 6.72827 17.6603 7.05371L8.47631 16.2377V14.714C8.47631 14.2538 8.10322 13.8807 7.64298 13.8807C7.18274 13.8807 6.80965 14.2538 6.80965 14.714V18.2496C6.80965 18.7098 7.18274 19.0829 7.64298 19.0829H11.1785C11.6388 19.0829 12.0118 18.7098 12.0118 18.2496C12.0118 17.7893 11.6388 17.4162 11.1785 17.4162H9.65482L18.8388 8.23222Z" fill="black"/></g><defs><clipPath id="clip0_737_11423"><rect width="20" height="20" fill="white"/></clipPath></defs></svg>