<svg width="100%" height="100%" style="overflow:visible;" preserveAspectRatio="none" viewBox="0 0 20 20" fill="none" xmlns="http://www.w3.org/2000/svg"><path fill-rule="evenodd" clip-rule="evenodd" d="M11.9121 1.98757C10.7643 1.18416 9.23672 1.18416 8.08899 1.98757L2.35767 5.99949C1.39216 6.67535 0.855306 7.81083 0.945697 8.98592L1.53321 16.6236C1.64402 18.0641 2.94919 19.1111 4.3794 18.9068L7.02075 18.5294C8.25237 18.3535 9.16719 17.2987 9.16719 16.0545V15C9.16719 14.5398 9.54029 14.1667 10.0005 14.1667C10.4608 14.1667 10.8339 14.5398 10.8339 15V16.0545C10.8339 17.2987 11.7487 18.3535 12.9803 18.5294L15.6217 18.9068C17.0519 19.1111 18.357 18.0641 18.4678 16.6236L19.0554 8.98592C19.1458 7.81083 18.6089 6.67535 17.6434 5.99949L11.9121 1.98757ZM9.04476 3.35296C9.61862 2.95125 10.3824 2.95125 10.9563 3.35296L16.6876 7.36488C17.1704 7.70281 17.4388 8.27055 17.3936 8.85809L16.8061 16.4958C16.7691 16.976 16.3341 17.3249 15.8574 17.2568L13.216 16.8795C12.8055 16.8209 12.5005 16.4693 12.5005 16.0545V15C12.5005 13.6193 11.3812 12.5 10.0005 12.5C8.61982 12.5 7.50053 13.6193 7.50053 15V16.0545C7.50053 16.4693 7.19559 16.8209 6.78505 16.8795L4.1437 17.2568C3.66696 17.3249 3.23191 16.976 3.19497 16.4958L2.60745 8.85809C2.56226 8.27055 2.83069 7.70281 3.31344 7.36488L9.04476 3.35296Z" fill="#2E3A5C"/></svg>