<svg width="100%" height="100%" style="overflow:visible;" preserveAspectRatio="none" viewBox="0 0 118 40" fill="none" xmlns="http://www.w3.org/2000/svg"><g clip-path="url(#clip0_248_653)"><mask id="mask0_248_653" style="mask-type:luminance" maskUnits="userSpaceOnUse" x="0" y="0" width="118" height="40"><path d="M118 0H0V40H118V0Z" fill="white"/></mask><g mask="url(#mask0_248_653)"><path d="M11.0959 7.26726C11.0959 11.0381 8.614 14.5294 5.54993 13.8304C2.48587 13.0653 0 8.32358 0 5.48862C0 2.65368 2.48193 0.257561 5.54993 0.0167847C8.61007 0.0284352 11.0959 3.48863 11.0959 7.26726Z" fill="#2E3A5C"/><path d="M25.6926 4.23037C25.6926 6.576 23.2106 9.59736 20.1426 10.9644C17.0786 12.3313 14.5927 10.4556 14.5927 6.75464C14.5927 3.05366 17.0746 -0.130808 20.1426 0.0206479C23.2067 0.172104 25.6926 1.90026 25.6926 4.23037Z" fill="#2E3A5C"/><path d="M40.2931 5.48858C40.2931 8.70023 37.8112 8.85946 34.7432 8.09441C31.6791 7.39538 29.1932 5.98567 29.1932 3.70996C29.1932 1.43423 31.6752 0.00121828 34.7432 0.0167522C37.8072 -0.224024 40.2931 2.15656 40.2931 5.48858Z" fill="#2E3A5C"/><path d="M11.0959 23.1003C11.0959 26.1216 8.614 29.042 5.54993 28.2071C2.48587 27.4886 0 22.4362 0 19.3643C0 16.2925 2.48193 16.475 5.54993 17.1508C8.61007 17.9663 11.0959 20.0168 11.0959 23.1003Z" fill="#2E3A5C"/><path d="M25.6926 16.7119C25.6926 19.7022 23.2106 23.341 20.1426 24.8362C17.0786 26.3313 14.5927 25.0731 14.5927 22.0207C14.5927 18.9682 17.0746 15.3294 20.1426 13.8925C23.2067 12.4556 25.6926 13.7061 25.6926 16.7119Z" fill="#2E3A5C"/><path d="M40.2931 19.3643C40.2931 22.3352 37.8112 22.1838 34.7432 21.4692C31.6791 20.6381 29.1932 18.6537 29.1932 15.6245C29.1932 12.5954 31.6752 9.81871 34.7432 10.6265C37.8072 11.3022 40.2931 16.2692 40.2931 19.3643Z" fill="#2E3A5C"/><path d="M11.0959 36.0711C11.0959 38.343 8.614 39.7798 5.54993 39.7682C2.48587 40.0089 0 37.6245 0 34.2925C0 30.9604 2.48193 30.9255 5.54993 31.6866C8.61007 32.3896 11.0959 33.7954 11.0959 36.0711Z" fill="#2E3A5C"/><path d="M25.6926 33.0342C25.6926 36.7507 23.2106 39.9196 20.1426 39.7681C17.0786 39.6128 14.5927 37.8847 14.5927 35.5585C14.5927 33.2323 17.0746 30.1915 20.1426 28.8245C23.2067 27.4536 25.6926 29.3332 25.6926 33.0342Z" fill="#2E3A5C"/><path d="M40.2931 34.2925C40.2931 37.007 37.8112 39.5274 34.7432 39.7682C31.6791 39.7565 29.1932 36.2925 29.1932 32.5178C29.1932 28.743 31.6752 25.2556 34.7432 25.9585C37.8072 26.7236 40.2931 31.4614 40.2931 34.2964" fill="#2E3A5C"/><path d="M53.1 40.005V34.9139H47.6523V40.005H47.0938V30.2304H47.6523V34.3508H53.1V30.2304H53.6703V40.005H53.1Z" fill="#2E3A5C"/><path d="M65.4153 38.7352C64.4634 39.675 63.2362 40.1449 61.7415 40.1449C60.2469 40.1449 59.0236 39.6827 58.0796 38.7508C57.1277 37.811 56.6479 36.5993 56.6479 35.1236C56.6479 33.6478 57.1199 32.4401 58.0639 31.508C59.0157 30.5682 60.2429 30.0983 61.7415 30.0983C63.2401 30.0983 64.4555 30.5605 65.4153 31.4925C66.3671 32.4323 66.8431 33.644 66.8431 35.1236C66.8431 36.6032 66.3711 37.8071 65.4153 38.7391M65.0141 31.9042C64.1605 31.0653 63.071 30.6459 61.7376 30.6459C60.4042 30.6459 59.3422 31.0653 58.4926 31.9042C57.6391 32.743 57.2182 33.8187 57.2182 35.1236C57.2182 36.4284 57.6351 37.4964 58.4808 38.3275C59.3304 39.1662 60.416 39.5856 61.7415 39.5856C63.0671 39.5856 64.1605 39.1779 65.018 38.3546C65.8597 37.5236 66.2806 36.4478 66.2806 35.1236C66.2806 33.7993 65.8597 32.7352 65.018 31.9042" fill="#2E3A5C"/><path d="M69.797 40.005V30.2304H70.3516V39.4458H73.1443V40.005H69.797Z" fill="#2E3A5C"/><path d="M82.4073 38.5294C81.5734 39.5157 80.4878 40.005 79.1505 40.005H75.8465V30.2304H79.1505C80.4799 30.2304 81.5616 30.7275 82.3915 31.71C83.1743 32.6304 83.5676 33.7644 83.5676 35.1042C83.5676 36.444 83.1821 37.5974 82.4033 38.5294M81.9903 32.0906C81.2666 31.2168 80.3226 30.778 79.1465 30.778H76.4011V39.4458H79.1465C80.1613 39.4458 81.0424 39.073 81.7937 38.3236C82.5961 37.5197 83.0012 36.4478 83.0012 35.1042C83.0012 33.9119 82.6629 32.9061 81.9903 32.0906Z" fill="#2E3A5C"/><path d="M86.5805 30.2304H86.0259V40.005H86.5805V30.2304Z" fill="#2E3A5C"/><path d="M89.739 31.7099V40.0051H89.1883V30.1604L96.5751 38.7197V30.2303H97.1455V40.172L89.739 31.7099Z" fill="#2E3A5C"/><path d="M108.993 38.6537C108.041 39.6478 106.774 40.1449 105.205 40.1449C103.635 40.1449 102.487 39.6827 101.547 38.7469C100.595 37.811 100.115 36.5993 100.115 35.1197C100.115 33.6401 100.591 32.4595 101.547 31.5197C102.507 30.5682 103.726 30.0945 105.205 30.0945C106.979 30.0945 108.375 30.7663 109.394 32.1061L108.934 32.4517C108.045 31.2479 106.802 30.642 105.205 30.642C103.903 30.642 102.817 31.0692 101.964 31.9158C101.102 32.7663 100.674 33.8343 100.674 35.1236C100.674 36.4129 101.095 37.4847 101.944 38.3275C102.813 39.1662 103.903 39.5856 105.205 39.5856C106.597 39.5856 107.726 39.1274 108.576 38.2032C109.221 37.5119 109.591 36.7236 109.685 35.8498H106.412V35.2867H110.306C110.306 36.6226 109.87 37.7449 108.993 38.6576" fill="#2E3A5C"/><path d="M116.147 39.9274C115.786 40.0555 115.361 40.1177 114.869 40.1177C113.355 40.1177 112.379 39.407 111.947 37.9934L112.513 37.8031C112.836 38.9759 113.622 39.5584 114.869 39.5584C115.585 39.5584 116.143 39.3837 116.549 39.0381C116.966 38.6847 117.174 38.1604 117.174 37.4769C117.174 36.8284 116.93 36.2886 116.435 35.8614C116.309 35.7449 116.112 35.6129 115.841 35.4614C115.573 35.3177 115.231 35.1507 114.818 34.9721C114.031 34.6226 113.492 34.3235 113.209 34.0672C112.729 33.6595 112.485 33.1158 112.485 32.4362C112.485 31.7565 112.729 31.2167 113.221 30.809C113.697 30.3857 114.291 30.176 114.991 30.176C116.155 30.176 116.981 30.607 117.461 31.4653L116.918 31.6983C116.733 31.3993 116.513 31.174 116.25 31.0264C115.927 30.8245 115.51 30.7274 114.987 30.7274C114.464 30.7274 113.988 30.8789 113.63 31.1779C113.241 31.4964 113.048 31.9158 113.048 32.4362C113.048 32.9022 113.252 33.3099 113.662 33.6556C113.89 33.8381 114.35 34.0866 115.042 34.3934C115.479 34.5837 115.852 34.774 116.167 34.9643C116.482 35.1507 116.737 35.341 116.93 35.5313C117.465 36.0517 117.733 36.7041 117.733 37.4769C117.733 38.7197 117.202 39.5351 116.14 39.9274" fill="#2E3A5C"/><path d="M52.7617 18.8012C52.7617 21.376 51.6289 21.376 51.2041 21.376C50.4804 21.376 49.9769 21.0576 49.6033 20.3779L49.2807 19.7954L47.1961 21.0886L47.4714 21.6012C48.2659 23.0576 49.5325 23.7993 51.2356 23.7993C53.0489 23.7993 55.2201 22.9411 55.2201 18.8595V0.00123596H52.7657V18.8012H52.7617Z" fill="#2E3A5C"/><path d="M70.859 17.842C70.859 18.9372 70.4499 19.7877 69.6082 20.4362C68.8137 21.0537 67.8028 21.3682 66.611 21.3682C65.4192 21.3682 64.3887 21.0653 63.6099 20.4634C62.7917 19.8304 62.3945 18.9721 62.3945 17.842V0.00123596H59.9676V17.842C59.9676 19.6983 60.6402 21.1974 61.9815 22.3003C63.2165 23.2906 64.7741 23.7954 66.611 23.7954C68.4479 23.7954 70.0645 23.3022 71.2445 22.3275C72.6172 21.209 73.3134 19.7022 73.3134 17.842V0.00123596H70.859V17.842Z" fill="#2E3A5C"/><path d="M93.3695 17.5119L78.2458 0.00123596V24.0401H80.6215V6.4828L95.7767 24.0401V0.00123596H93.3695V17.5119Z" fill="#2E3A5C"/><path d="M108.709 0.00123596L99.6077 23.7954H102.098L104.481 17.7255H112.961L115.317 23.7954H117.835L108.706 0.00123596H108.709ZM111.994 15.3255H105.425L108.706 6.45173L111.99 15.3255H111.994Z" fill="#2E3A5C"/></g></g><defs><clipPath id="clip0_248_653"><rect width="118" height="40" fill="white"/></clipPath></defs></svg>