<svg width="100%" height="100%" style="overflow:visible;" preserveAspectRatio="none" viewBox="0 0 272 52" fill="none" xmlns="http://www.w3.org/2000/svg"><g clip-path="url(#clip0_737_11363)"><mask id="mask0_737_11363" style="mask-type:luminance" maskUnits="userSpaceOnUse" x="24" y="8" width="107" height="36"><path d="M130.2 8H24V44H130.2V8Z" fill="white"/></mask><g mask="url(#mask0_737_11363)"><path d="M33.9863 14.5406C33.9863 17.9344 31.7526 21.0765 28.9949 20.4474C26.2373 19.7588 24 15.4912 24 12.9398C24 10.3883 26.2337 8.23184 28.9949 8.01514C31.7491 8.02562 33.9863 11.1398 33.9863 14.5406Z" fill="#2E3A5C"/><path d="M47.1233 11.8073C47.1233 13.9184 44.8896 16.6376 42.1284 17.8679C39.3707 19.0982 37.1334 17.4101 37.1334 14.0792C37.1334 10.7483 39.3672 7.88228 42.1284 8.01859C44.886 8.1549 47.1233 9.71024 47.1233 11.8073Z" fill="#2E3A5C"/><path d="M60.2638 12.9397C60.2638 15.8302 58.0301 15.9735 55.2689 15.285C52.5112 14.6558 50.2739 13.3871 50.2739 11.339C50.2739 9.29081 52.5077 8.0011 55.2689 8.01508C58.0265 7.79838 60.2638 9.9409 60.2638 12.9397Z" fill="#2E3A5C"/><path d="M33.9863 28.7903C33.9863 31.5095 31.7526 34.1378 28.9949 33.3864C26.2373 32.7398 24 28.1926 24 25.4279C24 22.6633 26.2337 22.8275 28.9949 23.4357C31.7491 24.1697 33.9863 26.0151 33.9863 28.7903Z" fill="#2E3A5C"/><path d="M47.1233 23.0407C47.1233 25.732 44.8896 29.0069 42.1284 30.3526C39.3707 31.6982 37.1334 30.5658 37.1334 27.8186C37.1334 25.0714 39.3672 21.7965 42.1284 20.5033C44.886 19.2101 47.1233 20.3355 47.1233 23.0407Z" fill="#2E3A5C"/><path d="M60.2638 25.4279C60.2638 28.1017 58.0301 27.9654 55.2689 27.3223C52.5112 26.5743 50.2739 24.7883 50.2739 22.0621C50.2739 19.3359 52.5077 16.8368 55.2689 17.5638C58.0265 18.172 60.2638 22.6423 60.2638 25.4279Z" fill="#2E3A5C"/><path d="M33.9863 40.464C33.9863 42.5086 31.7526 43.8018 28.9949 43.7913C26.2373 44.008 24 41.862 24 38.8632C24 35.8644 26.2337 35.8329 28.9949 36.518C31.7491 37.1506 33.9863 38.4158 33.9863 40.464Z" fill="#2E3A5C"/><path d="M47.1233 37.7308C47.1233 41.0757 44.8896 43.9277 42.1284 43.7913C39.3707 43.6515 37.1334 42.0962 37.1334 40.0026C37.1334 37.9091 39.3672 35.1724 42.1284 33.9421C44.886 32.7083 47.1233 34.3999 47.1233 37.7308Z" fill="#2E3A5C"/><path d="M60.2638 38.8632C60.2638 41.3063 58.0301 43.5746 55.2689 43.7913C52.5112 43.7809 50.2739 40.6633 50.2739 37.266C50.2739 33.8687 52.5077 30.7301 55.2689 31.3627C58.0265 32.0512 60.2638 36.3153 60.2638 38.8667" fill="#2E3A5C"/><path d="M71.79 44.0046V39.4225H66.8871V44.0046H66.3844V35.2074H66.8871V38.9157H71.79V35.2074H72.3033V44.0046H71.79Z" fill="#2E3A5C"/><path d="M82.8738 42.8617C82.0171 43.7075 80.9126 44.1304 79.5674 44.1304C78.2222 44.1304 77.1213 43.7145 76.2717 42.8757C75.415 42.0299 74.9831 40.9394 74.9831 39.6112C74.9831 38.2831 75.4079 37.1961 76.2575 36.3572C77.1142 35.5114 78.2187 35.0885 79.5674 35.0885C80.9161 35.0885 82.01 35.5044 82.8738 36.3433C83.7304 37.1891 84.1588 38.2796 84.1588 39.6112C84.1588 40.9429 83.734 42.0264 82.8738 42.8652M82.5127 36.7137C81.7445 35.9588 80.7639 35.5813 79.5639 35.5813C78.3638 35.5813 77.408 35.9588 76.6434 36.7137C75.8752 37.4687 75.4964 38.4369 75.4964 39.6112C75.4964 40.7856 75.8716 41.7468 76.6327 42.4947C77.3974 43.2496 78.3744 43.6271 79.5674 43.6271C80.7604 43.6271 81.7445 43.2601 82.5162 42.5192C83.2738 41.7712 83.6526 40.8031 83.6526 39.6112C83.6526 38.4194 83.2738 37.4617 82.5162 36.7137" fill="#2E3A5C"/><path d="M86.8173 44.0046V35.2074H87.3164V43.5013H89.8298V44.0046H86.8173Z" fill="#2E3A5C"/><path d="M98.1665 42.6765C97.416 43.5642 96.439 44.0046 95.2354 44.0046H92.2618V35.2074H95.2354C96.4319 35.2074 97.4054 35.6548 98.1524 36.539C98.8568 37.3674 99.2108 38.3879 99.2108 39.5938C99.2108 40.7996 98.8639 41.8377 98.163 42.6765M97.7913 36.8816C97.1399 36.0952 96.2903 35.7002 95.2319 35.7002H92.761V43.5013H95.2319C96.1452 43.5013 96.9381 43.1657 97.6143 42.4913C98.3364 41.7678 98.7011 40.8031 98.7011 39.5938C98.7011 38.5208 98.3966 37.6156 97.7913 36.8816Z" fill="#2E3A5C"/><path d="M101.922 35.2074H101.423V44.0046H101.922V35.2074Z" fill="#2E3A5C"/><path d="M104.765 36.539V44.0046H104.27V35.1444L110.918 42.8477V35.2073H111.431V44.1549L104.765 36.539Z" fill="#2E3A5C"/><path d="M122.093 42.7883C121.237 43.683 120.097 44.1303 118.684 44.1303C117.272 44.1303 116.238 43.7144 115.392 42.8721C114.536 42.0298 114.104 40.9393 114.104 39.6077C114.104 38.276 114.532 37.2135 115.392 36.3677C116.256 35.5114 117.353 35.085 118.684 35.085C120.281 35.085 121.538 35.6896 122.454 36.8954L122.04 37.2065C121.24 36.123 120.122 35.5778 118.684 35.5778C117.513 35.5778 116.536 35.9622 115.767 36.7242C114.992 37.4896 114.606 38.4508 114.606 39.6112C114.606 40.7716 114.985 41.7362 115.75 42.4947C116.532 43.2496 117.513 43.627 118.684 43.627C119.938 43.627 120.954 43.2146 121.718 42.3828C122.299 41.7607 122.631 41.0512 122.716 40.2648H119.771V39.758H123.276C123.276 40.9603 122.883 41.9704 122.093 42.7918" fill="#2E3A5C"/><path d="M128.533 43.9346C128.207 44.0499 127.825 44.1059 127.382 44.1059C126.019 44.1059 125.141 43.4663 124.752 42.1941L125.262 42.0228C125.552 43.0783 126.26 43.6026 127.382 43.6026C128.026 43.6026 128.529 43.4453 128.894 43.1342C129.269 42.8162 129.457 42.3443 129.457 41.7292C129.457 41.1455 129.237 40.6597 128.791 40.2752C128.678 40.1704 128.501 40.0515 128.257 39.9152C128.016 39.7859 127.708 39.6356 127.336 39.4748C126.628 39.1603 126.143 38.8911 125.888 38.6605C125.456 38.2935 125.237 37.8042 125.237 37.1925C125.237 36.5808 125.456 36.095 125.899 35.728C126.327 35.3471 126.862 35.1583 127.492 35.1583C128.54 35.1583 129.283 35.5463 129.715 36.3187L129.226 36.5284C129.06 36.2593 128.862 36.0566 128.625 35.9238C128.334 35.742 127.959 35.6546 127.488 35.6546C127.018 35.6546 126.589 35.7909 126.267 36.0601C125.917 36.3467 125.743 36.7242 125.743 37.1925C125.743 37.6119 125.927 37.9789 126.295 38.29C126.501 38.4542 126.915 38.6779 127.538 38.9541C127.931 39.1253 128.267 39.2966 128.55 39.4678C128.834 39.6356 129.064 39.8069 129.237 39.9781C129.719 40.4465 129.959 41.0337 129.959 41.7292C129.959 42.8476 129.481 43.5816 128.526 43.9346" fill="#2E3A5C"/><path d="M71.4855 24.9211C71.4855 27.2384 70.466 27.2384 70.0837 27.2384C69.4323 27.2384 68.9792 26.9518 68.6429 26.3401L68.3526 25.8159L66.4764 26.9797L66.7242 27.4411C67.4393 28.7518 68.5792 29.4194 70.112 29.4194C71.744 29.4194 73.698 28.6469 73.698 24.9735V8.0011H71.4891V24.9211H71.4855Z" fill="#2E3A5C"/><path d="M87.7731 24.0578C87.7731 25.0434 87.405 25.8089 86.6474 26.3926C85.9323 26.9483 85.0225 27.2314 83.9499 27.2314C82.8773 27.2314 81.9498 26.9588 81.2489 26.417C80.5126 25.8473 80.155 25.0749 80.155 24.0578V8.0011H77.9709V24.0578C77.9709 25.7285 78.5762 27.0776 79.7833 28.0702C80.8949 28.9615 82.2967 29.4159 83.9499 29.4159C85.6031 29.4159 87.058 28.972 88.12 28.0947C89.3555 27.0881 89.9821 25.732 89.9821 24.0578V8.0011H87.7731V24.0578Z" fill="#2E3A5C"/><path d="M108.033 23.7607L94.4212 8.0011V29.6361H96.5594V13.8345L110.199 29.6361V8.0011H108.033V23.7607Z" fill="#2E3A5C"/><path d="M121.839 8.0011L113.647 29.4159H115.888L118.033 23.953H125.665L127.786 29.4159H130.051L121.835 8.0011H121.839ZM124.794 21.793H118.883L121.835 13.8065L124.791 21.793H124.794Z" fill="#2E3A5C"/></g></g><defs><clipPath id="clip0_737_11363"><rect width="106.2" height="36" fill="white" transform="translate(24 8)"/></clipPath></defs></svg>