<svg width="100%" height="100%" style="overflow:visible;" preserveAspectRatio="none" viewBox="0 0 20 20" fill="none" xmlns="http://www.w3.org/2000/svg"><path d="M17.2556 3.24408C17.5811 3.56951 17.5811 4.09715 17.2556 4.42259L3.9223 17.7559C3.59687 18.0814 3.06923 18.0814 2.74379 17.7559C2.41836 17.4305 2.41836 16.9028 2.74379 16.5774L16.0771 3.24408C16.4026 2.91864 16.9302 2.91864 17.2556 3.24408Z" fill="#667185"/><path d="M13.166 4.9767C12.2274 4.53469 11.1691 4.25 9.9997 4.25C7.54629 4.25 5.58202 5.50308 4.18604 6.83307C2.78685 8.16611 1.87897 9.64973 1.51958 10.2915C1.28406 10.7121 1.25601 11.2143 1.44934 11.6603C1.58435 11.9718 1.81395 12.4544 2.15237 13.0143C2.39041 13.4082 2.9027 13.5346 3.29659 13.2965C3.69049 13.0585 3.81683 12.5462 3.57879 12.1523C3.3066 11.7019 3.11772 11.3124 3.00316 11.0537C3.34129 10.4578 4.14208 9.17693 5.33569 8.03975C6.56858 6.86513 8.14141 5.91667 9.9997 5.91667C10.6681 5.91667 11.2995 6.03937 11.8915 6.25116L13.166 4.9767Z" fill="#667185"/><path d="M14.7418 8.11491C15.8923 9.23288 16.6655 10.4709 16.9962 11.0537C16.8817 11.3124 16.6928 11.7019 16.4206 12.1523C16.1826 12.5462 16.3089 13.0585 16.7028 13.2965C17.0967 13.5346 17.609 13.4082 17.847 13.0143C18.1855 12.4544 18.4151 11.9718 18.5501 11.6603C18.7434 11.2143 18.7153 10.7121 18.4798 10.2915C18.1297 9.66625 17.2589 8.24193 15.9204 6.93629L14.7418 8.11491Z" fill="#667185"/><path d="M9.99971 7.16667C10.3026 7.16667 10.5979 7.19898 10.8824 7.26034L9.1675 8.97519C8.45625 9.2262 7.89258 9.78987 7.64157 10.5011L5.92672 12.216C5.86536 11.9315 5.83305 11.6362 5.83305 11.3333C5.83305 9.03215 7.69853 7.16667 9.99971 7.16667Z" fill="#667185"/><path d="M9.99971 13.8333C9.70732 13.8333 9.42665 13.7831 9.16585 13.6909L7.91498 14.9418C8.52815 15.2968 9.2402 15.5 9.99971 15.5C12.3009 15.5 14.1664 13.6345 14.1664 11.3333C14.1664 10.5738 13.9632 9.86177 13.6081 9.24859L12.3573 10.4995C12.4495 10.7603 12.4997 11.0409 12.4997 11.3333C12.4997 12.714 11.3804 13.8333 9.99971 13.8333Z" fill="#667185"/></svg>