<svg width="100%" height="100%" style="overflow:visible;" preserveAspectRatio="none" viewBox="0 0 20 20" fill="none" xmlns="http://www.w3.org/2000/svg"><path fill-rule="evenodd" clip-rule="evenodd" d="M15.8336 18C17.6745 18 19.1669 16.5076 19.1669 14.6667V7.18557C19.1672 7.17283 19.1672 7.16005 19.1669 7.14725V6.33333C19.1669 4.49238 17.6745 3 15.8336 3H4.16693C2.32598 3 0.833596 4.49238 0.833596 6.33333V7.14726C0.833299 7.16005 0.833301 7.17282 0.833596 7.18556V14.6667C0.833596 16.5076 2.32598 18 4.16693 18H15.8336ZM2.50026 14.6667C2.50026 15.5871 3.24645 16.3333 4.16693 16.3333H15.8336C16.7541 16.3333 17.5003 15.5871 17.5003 14.6667V8.39753L11.2382 10.9023C10.4435 11.2202 9.557 11.2202 8.76229 10.9023L2.50026 8.39753V14.6667ZM10.6192 9.35488L17.5003 6.60247V6.33333C17.5003 5.41286 16.7541 4.66667 15.8336 4.66667H4.16693C3.24645 4.66667 2.50026 5.41286 2.50026 6.33333V6.60247L9.38128 9.35488C9.77863 9.51382 10.2219 9.51382 10.6192 9.35488Z" fill="#667185"/></svg>