<svg width="100%" height="100%" style="overflow:visible;" preserveAspectRatio="none" viewBox="0 0 20 20" fill="none" xmlns="http://www.w3.org/2000/svg"><path d="M17.2558 3.24408C17.5812 3.56951 17.5812 4.09715 17.2558 4.42259L3.92243 17.7559C3.59699 18.0814 3.06935 18.0814 2.74391 17.7559C2.41848 17.4305 2.41848 16.9028 2.74391 16.5774L16.0772 3.24408C16.4027 2.91864 16.9303 2.91864 17.2558 3.24408Z" fill="#667185"/><path d="M13.1661 4.9767C12.2275 4.53469 11.1692 4.25 9.99982 4.25C7.54641 4.25 5.58214 5.50308 4.18616 6.83307C2.78698 8.16611 1.87909 9.64973 1.5197 10.2915C1.28418 10.7121 1.25613 11.2143 1.44946 11.6603C1.58447 11.9718 1.81407 12.4544 2.15249 13.0143C2.39053 13.4082 2.90282 13.5346 3.29671 13.2965C3.69061 13.0585 3.81695 12.5462 3.57891 12.1523C3.30672 11.7019 3.11784 11.3124 3.00328 11.0537C3.34141 10.4578 4.14221 9.17693 5.33581 8.03975C6.56871 6.86513 8.14153 5.91667 9.99982 5.91667C10.6682 5.91667 11.2997 6.03937 11.8916 6.25116L13.1661 4.9767Z" fill="#667185"/><path d="M14.7419 8.11491C15.8924 9.23288 16.6657 10.4709 16.9964 11.0537C16.8818 11.3124 16.6929 11.7019 16.4207 12.1523C16.1827 12.5462 16.309 13.0585 16.7029 13.2965C17.0968 13.5346 17.6091 13.4082 17.8472 13.0143C18.1856 12.4544 18.4152 11.9718 18.5502 11.6603C18.7435 11.2143 18.7155 10.7121 18.4799 10.2915C18.1298 9.66625 17.259 8.24193 15.9206 6.93629L14.7419 8.11491Z" fill="#667185"/><path d="M9.99984 7.16667C10.3027 7.16667 10.598 7.19898 10.8825 7.26034L9.16762 8.97519C8.45638 9.2262 7.8927 9.78987 7.6417 10.5011L5.92684 12.216C5.86548 11.9315 5.83317 11.6362 5.83317 11.3333C5.83317 9.03215 7.69865 7.16667 9.99984 7.16667Z" fill="#667185"/><path d="M9.99984 13.8333C9.70744 13.8333 9.42677 13.7831 9.16597 13.6909L7.9151 14.9418C8.52828 15.2968 9.24033 15.5 9.99984 15.5C12.301 15.5 14.1665 13.6345 14.1665 11.3333C14.1665 10.5738 13.9633 9.86177 13.6083 9.24859L12.3574 10.4995C12.4496 10.7603 12.4998 11.0409 12.4998 11.3333C12.4998 12.714 11.3805 13.8333 9.99984 13.8333Z" fill="#667185"/></svg>